<?xml version="1.0" encoding="UTF-8" standalone="no"?>
<!-- Created with Inkscape (http://www.inkscape.org/) -->

<svg
   xmlns:dc="http://purl.org/dc/elements/1.1/"
   xmlns:cc="http://creativecommons.org/ns#"
   xmlns:rdf="http://www.w3.org/1999/02/22-rdf-syntax-ns#"
   xmlns:svg="http://www.w3.org/2000/svg"
   xmlns="http://www.w3.org/2000/svg"
   version="1.0"
   width="688"
   height="688"
   id="svg2652">
  <metadata
     id="metadata4246">
    <rdf:RDF>
      <cc:Work
         rdf:about="">
        <dc:format>image/svg+xml</dc:format>
        <dc:type
           rdf:resource="http://purl.org/dc/dcmitype/StillImage" />
        <dc:title></dc:title>
      </cc:Work>
    </rdf:RDF>
  </metadata>
  <defs
     id="defs2654" />
  <g
     transform="matrix(1.2374101,0,0,1.2374101,-75.092169,-89.229988)"
     id="layer1">
    <path
       d="m 312.65586,627.83411 c -2.4442,-0.2948 -10.44338,-1.43825 -17.77597,-2.541 -44.08941,-6.63067 -88.48161,-25.64979 -126.08644,-54.01969 -13.38525,-10.0981 -41.3466,-38.04957 -51.44827,-51.43008 C 89.5677,483.04982 71.712203,442.11283 63.555801,396.52132 c -2.455673,-13.72638 -2.870856,-20.45251 -2.870856,-46.50939 0,-26.05689 0.415183,-32.78301 2.870856,-46.50939 C 71.712203,257.91103 89.5677,216.97404 117.34518,180.18052 127.44685,166.8 155.4082,138.84854 168.79345,128.75044 205.59999,100.9828 246.55146,83.13363 292.1591,74.980115 c 13.73124,-2.454818 20.45974,-2.869841 46.52585,-2.869841 26.06611,0 32.79461,0.415023 46.52584,2.869841 45.60764,8.153515 86.55911,26.002685 123.36566,53.770325 13.38526,10.0981 41.3466,38.04956 51.44828,51.43008 27.77746,36.79352 45.63295,77.73051 53.78936,123.32202 2.45568,13.72638 2.87085,20.4525 2.87085,46.50939 0,26.05688 -0.41517,32.78301 -2.87085,46.50939 -8.10724,45.31665 -26.11715,86.67872 -53.57359,123.03868 -10.29092,13.62802 -38.16787,41.53161 -51.66405,51.71342 -23.08509,17.4159 -47.88205,30.89077 -75.29798,40.91756 -31.1838,11.40482 -53.13867,15.27969 -89.51468,15.79868 -14.66516,0.20922 -28.66373,0.13923 -31.10793,-0.15555 z m 59.67645,-37.17075 c 42.95066,-6.4801 79.75213,-21.86146 113.51544,-47.44435 13.19211,-9.99582 36.11328,-32.90889 46.11264,-46.09632 60.6053,-79.92797 66.43415,-187.27013 14.79206,-272.40553 -10.57425,-17.43236 -21.03521,-30.61871 -36.56944,-46.0969 -38.90457,-38.76421 -83.18593,-61.01232 -137.8507,-69.25975 -62.31648,-9.401873 -128.50299,7.95263 -180.81017,47.40957 -13.02693,9.82661 -35.95861,32.77295 -46.10167,46.13109 -66.461023,87.52755 -66.465464,206.57947 -0.011,294.22152 9.99936,13.18743 32.92053,36.1005 46.11263,46.09632 51.99902,39.40033 118.48835,56.84704 180.81017,47.44435 z m -39.78429,-4.78011 c -0.46557,-0.46539 -0.84649,-15.29965 -0.84649,-32.96501 l 0,-32.11884 -17.41233,-0.35313 -17.41232,-0.35314 -3.2205,-8.88483 c -1.77125,-4.88667 -4.23557,-10.37846 -5.47621,-12.20399 -4.10755,-6.04398 1.04491,-12.51133 8.82131,-11.07247 1.4111,0.2611 3.96883,3.79154 6.51827,8.99725 l 4.19585,8.56752 11.99297,0 11.99296,0 0,-33.5448 c 0,-36.719 0.16186,-37.53391 7.45502,-37.53391 6.41308,0 6.51182,0.56193 6.51182,37.06247 l 0,34.01624 12.46348,0 12.46346,0 2.91619,-7.03337 c 1.60391,-3.86834 3.74966,-7.86652 4.76833,-8.88484 2.83637,-2.83535 8.82118,-2.31366 11.12159,0.96948 2.65733,3.79253 2.48835,6.74394 -0.62731,10.95662 -1.43211,1.93638 -3.65247,6.91097 -4.93411,11.05465 l -2.33027,7.53398 -17.92067,0.35217 -17.92069,0.35216 0,32.96599 0,32.96597 -6.13694,0 c -3.37533,0 -6.51787,-0.38077 -6.98341,-0.84617 z m -97.34458,-78.58324 c -1.74586,-0.28568 -7.17387,-1.15706 -12.06227,-1.93637 -29.50381,-4.70358 -60.7905,-20.65427 -81.8964,-41.7527 -9.06526,-9.06205 -22.85481,-27.34488 -22.85481,-30.30196 0,-0.67296 4.31943,-4.69714 9.5987,-8.9426 31.92379,-25.67228 75.51767,-30.71236 110.95824,-12.82835 24.66789,12.4479 42.91198,32.73343 51.98671,57.80376 2.17045,5.99623 3.94628,11.33365 3.94628,11.8609 0,0.52727 -2.28303,1.96557 -5.07341,3.19624 l -5.07341,2.2376 -5.40171,-4.36115 c -9.96035,-8.04161 -30.69314,-21.42865 -41.95945,-27.09294 -29.04066,-14.60061 -61.8242,-23.19151 -90.41343,-23.6928 -11.67737,-0.20475 -13.96684,0.0672 -13.96684,1.65899 0,1.5215 2.67774,2.06197 13.33198,2.69094 31.54606,1.86233 55.78362,8.09922 85.98685,22.12648 20.58757,9.56145 51.82618,31.57881 50.33097,35.47387 -0.39499,1.02895 -0.11923,3.58832 0.6128,5.68749 1.48836,4.26799 2.28583,3.82358 -11.22917,6.25783 -7.98298,1.43787 -32.07869,2.69087 -36.82163,1.91477 z m 185.37792,-0.026 c -8.31944,-0.69049 -23.64318,-3.22877 -25.07873,-4.15414 -1.42305,-0.9173 -0.30373,-9.99806 1.58905,-12.89154 1.75659,-2.68526 30.90042,-24.07889 32.80188,-24.07889 0.33085,0 3.94181,-1.8782 8.02435,-4.17377 27.40735,-15.41084 67.83417,-26.28854 97.70102,-26.28854 5.36876,0 8.3042,-0.59101 9.38172,-1.88888 2.51808,-3.03302 -1.20767,-3.63292 -16.5398,-2.66309 -34.56951,2.18667 -70.60179,13.30751 -101.04221,31.18517 -10.45495,6.1402 -30.52142,20.57222 -32.42174,23.31807 -1.38532,2.00171 -10.55329,-2.36768 -10.98968,-5.2376 -0.61972,-4.07566 6.86406,-21.89985 13.21387,-31.47158 28.00088,-42.20869 77.56316,-58.49275 124.93721,-41.04907 10.11921,3.72601 22.40757,11.34123 30.85389,19.12048 l 7.36422,6.78261 -5.97418,8.88484 c -7.94517,11.81609 -26.69197,30.36463 -39.06303,38.6499 -10.25747,6.86973 -24.0187,13.70165 -36.3511,18.04694 -15.95126,5.62039 -42.56343,9.22405 -58.40674,7.90909 z m -100.30723,-67.3602 c -6.45744,-0.64538 -26.99084,-5.36343 -29.10298,-6.68711 -4.91799,-3.08212 8.29096,-12.80159 17.30755,-12.73534 3.95729,0.0291 6.18115,1.22118 12.52016,6.71139 7.09604,6.14586 7.61701,6.94942 6.56018,10.11874 -0.63138,1.8935 -1.52889,3.35131 -1.99444,3.23959 -0.46557,-0.11172 -2.84627,-0.40299 -5.29047,-0.64727 z m -5.54421,-8.65291 c 1.08082,-2.81558 -1.93058,-6.9971 -5.03907,-6.9971 -5.92783,0 -7.9765,6.0338 -3.18724,9.38714 2.95482,2.0689 6.9615,0.90483 8.22631,-2.39004 z m 35.90376,6.03165 c -0.6359,-1.67195 -1.15619,-3.18583 -1.15619,-3.36415 0,-0.17833 3.69301,-3.28257 8.20667,-6.89832 8.65715,-6.93496 13.99345,-8.30025 20.1279,-5.14971 4.04481,2.07732 9.7568,7.6772 9.7568,9.56531 0,2.13579 -14.62468,6.45565 -26.46005,7.81582 -9.10627,1.04653 -9.34534,1.00159 -10.47513,-1.96895 z m 22.75577,-7.21239 c 1.17531,-5.9299 -7.69388,-8.08926 -10.24412,-2.49411 -1.33887,2.93748 -1.16752,3.60292 1.47932,5.74545 2.63314,2.13144 3.31556,2.20984 5.66805,0.65119 1.47096,-0.97459 2.86449,-2.73072 3.09675,-3.90253 z m -93.42964,-1.36276 c -14.19301,-6.16664 -35.20791,-23.80268 -45.38653,-38.08906 -15.64449,-21.95813 -26.03379,-52.72145 -26.03379,-77.08751 0,-24.37901 4.13963,-40.48849 14.61486,-56.87416 13.0155,-20.35927 32.11068,-33.44996 57.43593,-39.37521 9.55779,-2.23619 12.46954,-2.41973 20.77955,-1.30988 10.99271,1.46813 20.6181,4.90826 29.37942,10.50024 l 6.03113,3.84941 0,8.15773 c 0,6.623 -0.41802,8.30593 -2.22199,8.94545 -1.2221,0.43324 -3.1226,1.55636 -4.22334,2.49578 -1.68355,1.43686 -3.0948,1.37961 -8.88798,-0.36051 -14.76104,-4.43388 -33.17903,-1.95018 -47.42452,6.39527 -17.12421,10.03192 -29.93113,32.31519 -29.93113,52.0784 0,7.51416 3.21529,21.41146 6.36452,27.50908 3.13177,6.06382 11.53914,16.36339 13.35715,16.36339 2.91621,0 2.21119,-2.44209 -2.13281,-7.38789 -14.74305,-16.78547 -17.1384,-44.6329 -5.54084,-64.41564 7.36365,-12.56069 21.06558,-22.86243 35.56617,-26.74031 7.73679,-2.06904 21.0604,-2.07211 27.93366,-0.006 4.8425,1.45535 5.11161,1.80974 5.78292,7.61573 0.66339,5.73768 0.37789,6.50517 -4.9439,13.2899 -6.98676,8.90741 -12.16797,19.98968 -14.2198,30.41523 -3.08427,15.6715 0.80793,42.83779 6.6539,46.44192 3.28527,2.02544 4.10692,0.082 1.92842,-4.56147 -5.27808,-11.25018 -6.89626,-26.2583 -4.21315,-39.07522 2.20379,-10.52704 8.89553,-24.93437 14.69397,-31.63606 3.42794,-3.96191 4.05102,-4.21486 7.03479,-2.85584 4.15732,1.89353 10.15617,1.91013 13.65589,0.0378 2.39437,-1.28098 3.22677,-0.86715 7.02083,3.49048 5.65077,6.4901 11.258,17.68589 13.77556,27.5053 2.69606,10.51549 1.77075,27.84924 -2.06928,38.76415 -2.90083,8.24534 -2.80192,9.96798 0.49965,8.7015 3.65316,-1.40135 7.63671,-18.11068 7.61678,-31.94934 -0.0268,-18.64086 -5.30971,-33.68353 -16.38135,-46.64479 -3.55082,-4.15685 -4.03584,-5.59562 -3.83264,-11.36882 l 0.23265,-6.6097 6.23719,-1.61664 c 29.16829,-7.56021 60.68748,11.24614 68.38705,40.80405 4.62316,17.74795 0.40991,36.34458 -11.5437,50.95188 -4.66368,5.69903 -5.10166,6.85022 -2.60619,6.85022 2.36962,0 8.93585,-7.28325 12.58737,-13.96189 10.36715,-18.96157 10.30973,-39.63369 -0.16556,-59.59799 -3.811,-7.26317 -15.75691,-19.20485 -23.02266,-23.01451 -14.80698,-7.76375 -32.68392,-10.01432 -46.09602,-5.80313 -5.80427,1.82246 -6.44158,1.78533 -11.10998,-0.64712 -4.89801,-2.55209 -4.9525,-2.66212 -4.9525,-10.00331 0,-6.89325 0.2944,-7.64367 4.12656,-10.51859 14.75212,-11.06712 35.04496,-15.40698 52.37561,-11.20111 20.14527,4.88892 32.65059,11.66696 45.8272,24.83891 18.89695,18.89027 25.98926,37.45938 26.22322,68.6577 0.18836,25.11693 -3.85404,40.66441 -17.20594,66.17588 -6.76008,12.91652 -21.6719,30.37485 -33.73533,39.49639 -9.54118,7.21437 -25.70625,15.3982 -26.43828,13.38481 -2.39412,-6.58467 -11.49919,-12.42885 -21.46804,-13.77939 -5.34132,-0.72363 -6.6996,-1.52933 -9.65923,-5.72965 -9.84955,-13.97855 -30.05047,-14.58938 -41.93533,-1.26805 -4.73601,5.30844 -6.34902,6.24507 -12.96017,7.52557 -8.3761,1.62235 -14.3458,5.12394 -17.97921,10.54586 -2.76481,4.12575 -2.40238,4.04671 -7.80076,1.7012 z m 44.50146,-4.30623 -6.76176,-5.56429 2.30825,-3.95086 c 4.56988,-7.82196 14.55168,-12.11568 24.0325,-10.33769 4.98751,0.93533 15.6403,10.19378 15.544,13.50946 -0.028,0.96448 -2.93054,4.0258 -6.45009,6.80296 -5.8608,4.62458 -7.05172,5.05173 -14.15516,5.07706 -7.30445,0.026 -8.14961,-0.29626 -14.51774,-5.53664 z m 17.48143,-2.73055 c 3.66648,-1.96154 3.31102,-8.50516 -0.55773,-10.26725 -4.4116,-2.00936 -8.41372,0.47193 -8.41372,5.21643 0,5.23792 4.20095,7.603 8.97145,5.05082 z M 198.84565,348.75133 c -18.13929,-3.94355 -33.04194,-12.14347 -47.30462,-26.02855 -15.75313,-15.33608 -25.0566,-33.86808 -28.09216,-55.958 l -1.46739,-10.67829 7.38266,-6.87878 c 15.12779,-14.09532 35.04356,-24.45784 55.66471,-28.96335 13.56382,-2.96354 35.5828,-2.58556 49.85717,0.85586 6.45965,1.55737 11.74483,3.2635 11.74483,3.79141 0,0.52791 -3.28538,3.51659 -7.30084,6.6415 -10.08057,7.8449 -20.90484,21.52686 -26.51747,33.51822 -2.59336,5.54075 -4.8325,10.24317 -4.97584,10.44984 -0.14335,0.20668 -7.04313,-1.88028 -15.33287,-4.63766 -24.84121,-8.26287 -55.70305,-13.31545 -55.70305,-9.11952 0,1.39027 3.15395,2.24679 12.69711,3.44817 14.51881,1.82776 33.8328,6.47651 47.40998,11.41129 l 9.31861,3.38696 -0.72567,5.18308 c -0.39913,2.85069 -1.08491,12.03709 -1.52395,20.41422 -0.75422,14.39068 0.0924,22.96198 4.10578,41.56836 0.85042,3.94255 1.2459,3.87425 -9.23699,1.59524 z m 270.85518,1.07302 c -0.27882,-0.27875 0.5981,-4.91991 1.94876,-10.31372 2.88939,-11.53875 3.50732,-38.33908 1.16264,-50.42331 -1.32147,-6.81076 -1.24419,-7.78666 0.73133,-9.23439 6.01761,-4.40993 41.33093,-13.43456 58.98882,-15.07512 9.23771,-0.85824 11.02704,-1.76805 8.15822,-4.14813 -3.49558,-2.90004 -35.58155,3.30331 -58.94788,11.39674 -5.92863,2.05351 -10.91688,3.73364 -11.08502,3.73364 -0.16815,0 -2.96573,-5.46602 -6.21683,-12.14669 -4.5893,-9.43051 -8.06254,-14.39777 -15.53225,-22.21347 -5.29163,-5.53673 -11.58637,-11.28092 -13.98831,-12.76487 -2.43528,-1.50456 -3.88441,-3.18066 -3.27591,-3.78896 0.60019,-0.59996 5.6415,-2.30329 11.20293,-3.78517 14.32059,-3.81579 37.52845,-3.82806 53.28188,-0.0282 15.4587,3.72883 34.36471,13.19776 47.6142,23.8472 12.33572,9.91499 12.79764,11.12047 10.13052,26.43769 -6.62752,38.06184 -37.88588,70.24928 -75.14941,77.38305 -4.68418,0.89673 -8.74485,1.40239 -9.02369,1.12366 z M 332.9003,267.07301 c -6.01964,-4.87267 -2.06186,-15.42894 5.78465,-15.42894 4.80549,0 8.66824,4.06926 8.52844,8.98438 -0.21942,7.71473 -8.26735,11.33838 -14.31309,6.44456 z m -2.46847,-46.02786 c -10.96179,-6.82378 -21.73358,-9.39145 -39.04364,-9.30679 -17.74709,0.0868 -16.75712,0.93889 -14.26471,-12.27814 6.21386,-32.95145 26.13508,-62.96912 53.55852,-80.70298 l 8.65944,-5.59979 9.77929,6.73213 c 11.5057,7.92059 21.91026,17.83928 29.35965,27.98866 11.44889,15.59843 21.49312,40.32543 23.45302,57.73682 l 0.74803,6.64538 -11.41756,-0.81015 c -14.85856,-1.05431 -26.65535,1.18835 -39.08484,7.43036 -5.30035,2.6618 -10.07632,4.83963 -10.61325,4.83963 -0.53694,0 -0.97627,-21.18082 -0.97627,-47.06848 0,-37.09037 -0.33646,-46.95651 -1.58713,-46.54021 -1.21614,0.40477 -1.73554,11.5107 -2.222,47.50932 l -0.63486,46.98106 -5.71369,-3.55682 z"
       id="path4399"
       style="fill:#000000" />
  </g>
</svg>
