<?xml version="1.0" standalone="no" ?>
<!DOCTYPE svg PUBLIC "-//W3C//DTD SVG 1.1//EN" "http://www.w3.org/Graphics/SVG/1.1/DTD/svg11.dtd">
<svg width="106px" height="82px" viewBox="0 0 106 82" style="background-color: transparent" xmlns="http://www.w3.org/2000/svg" xmlns:xlink="http://www.w3.org/1999/xlink" version="1.1" >
<text x="0" y="0" stroke="transparent" fill="#000000" transform="matrix(0.05 0 0 0.05 85.5469 16.8493)" style="font:normal normal normal 200px 'Arial'" >
N</text>
<text x="0" y="0" stroke="transparent" fill="#000000" transform="matrix(0.05 0 0 0.05 62.5619 70.5333)" style="font:normal normal normal 200px 'Arial'" >
N</text>
<text x="0" y="0" stroke="transparent" fill="#000000" transform="matrix(0.05 0 0 0.05 62.5619 79.075)" style="font:normal normal normal 200px 'Arial'" >
H</text>
<text x="0" y="0" stroke="transparent" fill="#000000" transform="matrix(0.05 0 0 0.05 11.1761 44.4835)" style="font:normal normal normal 200px 'Arial'" >
O</text>
<path stroke="transparent" fill="#000000" transform="matrix(0.05 0 0 0.05 -449 -218)" d="M 10683.6,4530.21 L 10674.7,4538.24 L 10566,4417.53 L 10574.9,4409.5 L 10683.6,4530.21 Z " />
<path stroke="transparent" fill="#000000" transform="matrix(0.05 0 0 0.05 -449 -218)" d="M 11043.6,4561.79 L 11046.1,4573.53 L 10859.3,4613.23 L 10856.8,4601.5 L 11043.6,4561.79 Z " />
<path stroke="transparent" fill="#000000" transform="matrix(0.05 0 0 0.05 -449 -218)" d="M 10678.8,4906.59 L 10669.5,4896.3 L 10721.9,4735 L 10733.3,4738.7 L 10678.8,4906.59 Z " />
<path stroke="transparent" fill="#000000" transform="matrix(0.05 0 0 0.05 -449 -218)" d="M 10397.1,4966.47 L 10387.8,4956.18 L 10669.5,4896.3 L 10678.8,4906.59 L 10397.1,4966.47 Z " />
<path stroke="transparent" fill="#000000" transform="matrix(0.05 0 0 0.05 -449 -218)" d="M 10310.1,5234.17 L 10303.5,5235.23 L 10298.7,5230.47 L 10387.8,4956.18 L 10397.1,4966.47 L 10310.1,5234.17 Z " />
<path stroke="transparent" fill="#000000" transform="matrix(0.05 0 0 0.05 -449 -218)" d="M 10480.2,5468.22 L 10465.3,5468.22 L 10301.2,5242.28 L 10303.5,5235.23 L 10310.1,5234.17 L 10480.2,5468.22 Z " />
<path stroke="transparent" fill="#000000" transform="matrix(0.05 0 0 0.05 -449 -218)" d="M 10413.5,5464.7 L 10403.8,5471.75 L 10278.8,5299.7 L 10288.5,5292.64 L 10413.5,5464.7 Z " />
<path stroke="transparent" fill="#000000" transform="matrix(0.05 0 0 0.05 -449 -218)" d="M 10381.4,5604.12 L 10371.7,5597.07 L 10465.3,5468.22 L 10480.2,5468.22 L 10381.4,5604.12 Z " />
<path stroke="transparent" fill="#000000" transform="matrix(0.05 0 0 0.05 -449 -218)" d="M 10030.2,5618.76 L 10029.6,5612.22 L 10035.6,5607.87 L 10205.1,5662.94 L 10201.4,5674.35 L 10030.2,5618.76 Z " />
<path stroke="transparent" fill="#000000" transform="matrix(0.05 0 0 0.05 -449 -218)" d="M 10023.6,5327.69 L 10029.6,5324.22 L 10035.6,5328.58 L 10035.6,5607.87 L 10029.6,5612.22 L 10023.6,5608.76 L 10023.6,5327.69 Z " />
<path stroke="transparent" fill="#000000" transform="matrix(0.05 0 0 0.05 -449 -218)" d="M 9971.71,5354.15 L 9983.71,5354.15 L 9983.71,5582.29 L 9971.71,5582.29 L 9971.71,5354.15 Z " />
<path stroke="transparent" fill="#000000" transform="matrix(0.05 0 0 0.05 -449 -218)" d="M 10035.6,5328.58 L 10029.6,5324.22 L 10030.2,5317.69 L 10298.7,5230.47 L 10303.5,5235.23 L 10301.2,5242.28 L 10035.6,5328.58 Z " />
<path stroke="transparent" fill="#000000" transform="matrix(0.05 0 0 0.05 -449 -218)" d="M 9780.14,5187.15 L 9780.14,5173.3 L 10030.2,5317.69 L 10029.6,5324.22 L 10023.6,5327.69 L 9780.14,5187.15 Z " />
<path stroke="transparent" fill="#000000" transform="matrix(0.05 0 0 0.05 -449 -218)" d="M 9536.72,5327.69 L 9530.72,5324.22 L 9530.72,5317.3 L 9780.14,5173.3 L 9780.14,5187.15 L 9536.72,5327.69 Z " />
<path stroke="transparent" fill="#000000" transform="matrix(0.05 0 0 0.05 -449 -218)" d="M 9585.56,5359.35 L 9579.56,5348.96 L 9777.14,5234.89 L 9783.14,5245.28 L 9585.56,5359.35 Z " />
<path stroke="transparent" fill="#000000" transform="matrix(0.05 0 0 0.05 -449 -218)" d="M 9536.72,5608.76 L 9524.72,5615.69 L 9524.72,5327.69 L 9530.72,5324.22 L 9536.72,5327.69 L 9536.72,5608.76 Z " />
<path stroke="transparent" fill="#000000" transform="matrix(0.05 0 0 0.05 -449 -218)" d="M 9780.14,5749.3 L 9780.14,5763.15 L 9524.72,5615.69 L 9536.72,5608.76 L 9780.14,5749.3 Z " />
<path stroke="transparent" fill="#000000" transform="matrix(0.05 0 0 0.05 -449 -218)" d="M 9783.14,5691.17 L 9777.14,5701.56 L 9579.56,5587.49 L 9585.56,5577.1 L 9783.14,5691.17 Z " />
<path stroke="transparent" fill="#000000" transform="matrix(0.05 0 0 0.05 -449 -218)" d="M 9780.14,5763.15 L 9780.14,5749.3 L 10023.6,5608.76 L 10029.6,5612.22 L 10030.2,5618.76 L 9780.14,5763.15 Z " />
<path stroke="transparent" fill="#000000" transform="matrix(0.05 0 0 0.05 -449 -218)" d="M 9367.07,5236.67 L 9373.07,5226.27 L 9530.72,5317.3 L 9530.72,5324.22 L 9524.72,5327.69 L 9367.07,5236.67 Z " />
<path stroke="transparent" fill="#000000" transform="matrix(0.05 0 0 0.05 -449 -218)" d="M 9034.89,5329.42 L 9028.89,5319.03 L 9189.35,5226.39 L 9195.35,5236.78 L 9034.89,5329.42 Z " />
</svg>
