<?xml version="1.0" encoding="UTF-8" standalone="no"?>
<svg
 xmlns="http://www.w3.org/2000/svg"
 xmlns:xlink="http://www.w3.org/1999/xlink"
 width="480"
 height="250">
<path
 d="m 98.94547,230.61896 0,-32.2119 4.2627,0 0,13.22753 16.74316,0 0,-13.22753 4.2627,0 0,32.2119 -4.2627,0 0,-15.18311 -16.74316,0 0,15.18311 z"
 id="H"
 fill="#000" />
<path
 d="m 131.53092,230.61896 0,-32.2119 4.37256,0 16.91894,25.29052 0,-25.29052 4.08692,0 0,32.2119 -4.37256,0 -16.91895,-25.3125 0,25.3125 z"
 id="N"
 fill="#000" />
<use
 transform="translate(255.15547,-117.9484)"
 xlink:href="#N" />
<path
 d="m 219.45,129.48103 -7.2,69 -49.5,10.5 m -6.6,-107.7 -21.3,-66 -67.8,-14.4 -46.5,51.6 21.3,66 67.8,14.4 m -79.2,-79.5 18.9,58.5 m 19.5,-101.4 60.3,12.9 m -23.4,100.5 41.1,-45.6 m -37.2,54.6 46.5,-51.6 m -46.5,51.6 23.1,39.6 m 23.4,-91.2 63.3,28.2 m -15.6,62.1 6,-57 m 189.6,-60 0,-48.9 m 60,103.8 -41.4,-24 m -37.2,0 -41.4,24 -60,-34.5 -60,34.5"
 style="fill:none;stroke:#000;stroke-width:3" />
</svg>
