<?xml version="1.0" encoding="UTF-8"?>
<svg width="580" height="680" version="1.1" viewBox="0 0 290 340" xmlns="http://www.w3.org/2000/svg" xmlns:xlink="http://www.w3.org/1999/xlink">
  <defs>
    <path id="char35" d="m1350 108q-55-24-99-45t-117-44q-61-19-132-32t-158-14q-162 0-294 45t-231 143q-96 95-150 241t-54 341q0 184 52 329t150 245q95 97 229 148t299 51q120 0 239-29t266-102v-235h-15q-123 103-244 150t-259 47q-113 0-203-36t-162-114q-69-75-107-189t-39-265q0-157 42-270t110-184q70-74 163-109t198-36q143 0 268 49t234 147h14v-232z"/>
    <path id="char40" d="M1339 0H1141V729H398V0H200V1489H398V905H1141V1489H1339V0Z"/>
    <path id="char46" d="M1336 0H1091L385 1332V0H200V1489H507L1151 273V1489H1336V0Z"/>
    <path id="char47" d="m1310 1318q91-100 139-245t49-329q0-184-49-329t-139-243q-92-101-217-152t-287-51q-157 0-285 52t-219 151q-90 99-138 243t-49 329q0 182 48 326t140 248q88 98 218 150t285 52q160 0 287-52t217-150zm-18-574q0 290-130 447t-355 158q-227 0-356-157t-130-448q0-293 132-448t354-156q222 0 353 155t132 449z"/>
    <path id="char76" d="M375 0H187V1556H375V0Z"/>
  </defs>
  <g stroke="#000" stroke-linecap="round" stroke-width="3.75">
    <line x1="4.75" x2="4.75" y1="199.606" y2="274.606"/>
    <line x1="4.75" x2="69.7" y1="199.606" y2="162.106"/>
    <line x1="4.75" x2="69.7" y1="274.606" y2="312.106"/>
    <line x1="69.7" x2="134.655" y1="312.106" y2="274.606"/>
    <line x1="134.655" x2="134.655" y1="274.606" y2="199.606"/>
    <line x1="134.655" x2="69.7" y1="199.606" y2="162.106"/>
    <line x1="134.655" x2="186.615" y1="199.606" y2="199.606"/>
    <line x1="134.655" x2="172.155" y1="199.606" y2="134.654"/>
    <line x1="247.155" x2="172.155" y1="4.75" y2="4.75"/>
    <line x1="134.655" x2="172.155" y1="69.7019" y2="134.654"/>
    <line x1="247.155" x2="284.655" y1="134.654" y2="69.7019"/>
    <line x1="134.655" x2="89.6128" y1="69.7019" y2="69.7019"/>
    <line x1="221.806" x2="247.155" y1="220.653" y2="264.558"/>
    <line x1="172.155" x2="134.655" y1="4.75" y2="69.7019"/>
    <line x1="175.815" x2="148.315" y1="18.4102" y2="66.0417"/>
    <line x1="247.155" x2="284.655" y1="4.75" y2="69.7019"/>
    <line x1="243.495" x2="270.995" y1="18.4102" y2="66.0417"/>
    <line x1="172.155" x2="247.155" y1="134.654" y2="134.654"/>
    <line x1="182.155" x2="237.155" y1="124.654" y2="124.654"/>
    <path d="m134.804 268.918 46.2158 26.6833m-51.2159-18.0231 46.2676 26.7132"/>
  </g>
  <g fill="#000000">
    <use transform="matrix(.0195312 0 0 -.0195312 183.864 329.801)" width="100%" height="100%" xlink:href="#char47"/>
    <use transform="matrix(.0195312 0 0 -.0195312 194.694 217.3)" width="100%" height="100%" xlink:href="#char46"/>
    <use transform="matrix(.0195312 0 0 -.0195312 40.2018 87.3964)" width="100%" height="100%" xlink:href="#char35"/>
    <use transform="matrix(.0195312 0 0 -.0195312 40.2018 87.3964)" x="1430" width="100%" height="100%" xlink:href="#char76"/>
    <use transform="matrix(.0195312 0 0 -.0195312 194.626 173.914)" width="100%" height="100%" xlink:href="#char40"/>
  </g>
</svg>
