<?xml version="1.0" encoding="UTF-8"?>
<svg width="238pt" xmlns:xlink="http://www.w3.org/1999/xlink" xmlns="http://www.w3.org/2000/svg" height="220pt" viewBox="0 0 238 220" >
 <g transform="translate(2.2998, 109.699)" style="fill:#161413; fill-rule:nonzero; stroke:none; stroke-width:1.7; stroke-linecap:butt; stroke-linejoin:miter; stroke-dasharray:none;" >
  <path d="M1.7002 39.651 C1.7002 39.651 0 40.601 0 40.601 C0 40.601 0 0 0 0 C0 0 1.7002 0.95 1.7002 0.95 C1.7002 0.95 1.7002 39.651 1.7002 39.651 Z" />
 </g>
 <g transform="translate(8.25, 113.6)" style="fill:#161413; fill-rule:nonzero; stroke:none; stroke-width:1.7; stroke-linecap:butt; stroke-linejoin:miter; stroke-dasharray:none;" >
  <path d="M1.69922 32.799 C1.69922 32.799 0 32.799 0 32.799 C0 32.799 0 0 0 0 C0 0 1.69922 0 1.69922 0 C1.69922 0 1.69922 32.799 1.69922 32.799 Z" />
 </g>
 <g transform="translate(2.2998, 149.35)" style="fill:#161413; fill-rule:nonzero; stroke:none; stroke-width:1.7; stroke-linecap:butt; stroke-linejoin:miter; stroke-dasharray:none;" >
  <path d="M35.2002 19.299 C35.2002 19.299 35.2002 20.299 35.2002 20.299 C35.2002 20.299 34.4502 20.849 34.4502 20.849 C34.4502 20.849 0 0.95 0 0.95 C0 0.95 1.7002 0 1.7002 0 C1.7002 0 35.2002 19.299 35.2002 19.299 Z" />
 </g>
 <g transform="translate(37.5, 149.35)" style="fill:#161413; fill-rule:nonzero; stroke:none; stroke-width:1.7; stroke-linecap:butt; stroke-linejoin:miter; stroke-dasharray:none;" >
  <path d="M33.5 0 C33.5 0 34.3496 0.5 34.3496 0.5 C34.3496 0.5 34.25 1.5 34.25 1.5 C34.25 1.5 0.9492 20.75 0.9492 20.75 C0.9492 20.75 0 20.299 0 20.299 C0 20.299 0 19.299 0 19.299 C0 19.299 33.5 0 33.5 0 Z" />
 </g>
 <g transform="translate(37.0498, 145.649)" style="fill:#161413; fill-rule:nonzero; stroke:none; stroke-width:1.7; stroke-linecap:butt; stroke-linejoin:miter; stroke-dasharray:none;" >
  <path d="M28.3994 0 C28.3994 0 29.25 1.5 29.25 1.5 C29.25 1.5 0.8496 17.851 0.8496 17.851 C0.8496 17.851 0 16.401 0 16.401 C0 16.401 28.3994 0 28.3994 0 Z" />
 </g>
 <g transform="translate(71, 110.199)" style="fill:#161413; fill-rule:nonzero; stroke:none; stroke-width:1.7; stroke-linecap:butt; stroke-linejoin:miter; stroke-dasharray:none;" >
  <path d="M0 0.45 C0 0.45 0.8496 0 0.8496 0 C0.8496 0 1.6992 0.45 1.6992 0.45 C1.6992 0.45 1.6992 39.25 1.6992 39.25 C1.6992 39.25 0.8496 39.651 0.8496 39.651 C0.8496 39.651 0 39.151 0 39.151 C0 39.151 0 0.45 0 0.45 Z" />
 </g>
 <g transform="translate(37.5, 89.3496)" style="fill:#161413; fill-rule:nonzero; stroke:none; stroke-width:1.7; stroke-linecap:butt; stroke-linejoin:miter; stroke-dasharray:none;" >
  <path d="M0 2 C0 2 0 0 0 0 C0 0 34.3496 19.8494 34.3496 19.8494 C34.3496 19.8494 34.3496 20.8494 34.3496 20.8494 C34.3496 20.8494 33.5 21.2994 33.5 21.2994 C33.5 21.2994 0 2 0 2 Z" />
 </g>
 <g transform="translate(37.0498, 96.5)" style="fill:#161413; fill-rule:nonzero; stroke:none; stroke-width:1.7; stroke-linecap:butt; stroke-linejoin:miter; stroke-dasharray:none;" >
  <path d="M0 1.4492 C0 1.4492 0.8496 0 0.8496 0 C0.8496 0 29.25 16.399 29.25 16.399 C29.25 16.399 28.3994 17.85 28.3994 17.85 C28.3994 17.85 0 1.4492 0 1.4492 Z" />
 </g>
 <g transform="translate(2.2998, 89.3496)" style="fill:#161413; fill-rule:nonzero; stroke:none; stroke-width:1.7; stroke-linecap:butt; stroke-linejoin:miter; stroke-dasharray:none;" >
  <path d="M1.7002 21.2994 C1.7002 21.2994 0 20.3494 0 20.3494 C0 20.3494 35.2002 0 35.2002 0 C35.2002 0 35.2002 2 35.2002 2 C35.2002 2 1.7002 21.2994 1.7002 21.2994 Z" />
 </g>
 <g transform="translate(21.7422, 200.504)" style="fill:#161413; fill-rule:evenodd; stroke:none; stroke-width:1.7; stroke-linecap:butt; stroke-linejoin:miter; stroke-dasharray:none;" >
  <path d="M11.2314 9.528 C11.2314 9.528 11.2314 17.496 11.2314 17.496 C11.2314 17.496 13.4639 17.496 13.4639 17.496 C13.4639 17.496 13.4639 0 13.4639 0 C13.4639 0 11.2314 0 11.2314 0 C11.2314 0 11.2314 7.56 11.2314 7.56 C11.2314 7.56 2.2314 7.56 2.2314 7.56 C2.2314 7.56 2.2314 0 2.2314 0 C2.2314 0 0 0 0 0 C0 0 0 17.496 0 17.496 C0 17.496 2.2558 17.496 2.2558 17.496 C2.2558 17.496 2.2558 9.528 2.2558 9.528 C2.2558 9.528 11.2314 9.528 11.2314 9.528 Z" />
 </g>
 <g transform="translate(38.8242, 200.504)" style="fill:#161413; fill-rule:evenodd; stroke:none; stroke-width:1.7; stroke-linecap:butt; stroke-linejoin:miter; stroke-dasharray:none;" >
  <path d="M13.6797 0 C13.6797 0 11.5674 0 11.5674 0 C11.5674 0 11.5674 14.304 11.5674 14.304 C11.5674 14.304 2.4238 0 2.4238 0 C2.4238 0 0 0 0 0 C0 0 0 17.496 0 17.496 C0 17.496 2.1113 17.496 2.1113 17.496 C2.1113 17.496 2.1113 3.312 2.1113 3.312 C2.1113 3.312 11.1602 17.496 11.1602 17.496 C11.1602 17.496 13.6797 17.496 13.6797 17.496 C13.6797 17.496 13.6797 0 13.6797 0 Z" />
 </g>
 <g transform="translate(36.75, 169.649)" style="fill:#161413; fill-rule:nonzero; stroke:none; stroke-width:1.7; stroke-linecap:butt; stroke-linejoin:miter; stroke-dasharray:none;" >
  <path d="M7.5498 28 C7.5498 28 5.8994 28.351 5.8994 28.351 C5.8994 28.351 0 0.55 0 0.55 C0 0.55 0.75 0 0.75 0 C0.75 0 1.6992 0.451 1.6992 0.451 C1.6992 0.451 7.5498 28 7.5498 28 Z" />
 </g>
 <g transform="translate(54.5, 207.6)" style="fill:#161413; fill-rule:nonzero; stroke:none; stroke-width:1.7; stroke-linecap:butt; stroke-linejoin:miter; stroke-dasharray:none;" >
  <path d="M30.1494 4.049 C30.1494 4.049 31.1992 5.9 31.1992 5.9 C31.1992 5.9 0 1.7 0 1.7 C0 1.7 0.1992 0 0.1992 0 C0.1992 0 30.1494 4.049 30.1494 4.049 Z" />
 </g>
 <g transform="translate(84.6494, 176.35)" style="fill:#161413; fill-rule:nonzero; stroke:none; stroke-width:1.7; stroke-linecap:butt; stroke-linejoin:miter; stroke-dasharray:none;" >
  <path d="M15.6006 0.25 C15.6006 0.25 16.6506 0 16.6506 0 C16.6506 0 17.2496 0.75 17.2496 0.75 C17.2496 0.75 1.0498 37.15 1.0498 37.15 C1.0498 37.15 0 35.299 0 35.299 C0 35.299 15.6006 0.25 15.6006 0.25 Z" />
 </g>
 <g transform="translate(80.6992, 177.55)" style="fill:#161413; fill-rule:nonzero; stroke:none; stroke-width:1.7; stroke-linecap:butt; stroke-linejoin:miter; stroke-dasharray:none;" >
  <path d="M12.6504 0 C12.6504 0 14.2002 0.7 14.2002 0.7 C14.2002 0.7 1.5508 29 1.5508 29 C1.5508 29 0 28.3 0 28.3 C0 28.3 12.6504 0 12.6504 0 Z" />
 </g>
 <g transform="translate(71.75, 149.449)" style="fill:#161413; fill-rule:nonzero; stroke:none; stroke-width:1.7; stroke-linecap:butt; stroke-linejoin:miter; stroke-dasharray:none;" >
  <path d="M0 1.401 C0 1.401 0.0996 0.401 0.0996 0.401 C0.0996 0.401 0.9492 0 0.9492 0 C0.9492 0 29.8 26 29.8 26 C29.8 26 29.55 26.901 29.55 26.901 C29.55 26.901 28.5 27.151 28.5 27.151 C28.5 27.151 0 1.401 0 1.401 Z" />
 </g>
 <g transform="translate(101.3, 167.199)" style="fill:#161413; fill-rule:nonzero; stroke:none; stroke-width:1.7; stroke-linecap:butt; stroke-linejoin:miter; stroke-dasharray:none;" >
  <path d="M39.05 0 C39.05 0 38.5 1.851 38.5 1.851 C38.5 1.851 0.599 9.901 0.599 9.901 C0.599 9.901 0 9.151 0 9.151 C0 9.151 0.25 8.25 0.25 8.25 C0.25 8.25 39.05 0 39.05 0 Z" />
 </g>
 <g transform="translate(139.8, 167.199)" style="fill:#161413; fill-rule:nonzero; stroke:none; stroke-width:1.7; stroke-linecap:butt; stroke-linejoin:miter; stroke-dasharray:none;" >
  <path d="M28.599 28 C28.599 28 28.05 29.901 28.05 29.901 C28.05 29.901 0 1.851 0 1.851 C0 1.851 0.55 0 0.55 0 C0.55 0 28.599 28 28.599 28 Z" />
 </g>
 <g transform="translate(199.574, 177.754)" style="fill:#161413; fill-rule:evenodd; stroke:none; stroke-width:1.7; stroke-linecap:butt; stroke-linejoin:miter; stroke-dasharray:none;" >
  <path d="M13.68 0 C13.68 0 11.568 0 11.568 0 C11.568 0 11.568 14.304 11.568 14.304 C11.568 14.304 2.424 0 2.424 0 C2.424 0 0 0 0 0 C0 0 0 17.496 0 17.496 C0 17.496 2.112 17.496 2.112 17.496 C2.112 17.496 2.112 3.312 2.112 3.312 C2.112 3.312 11.16 17.496 11.16 17.496 C11.16 17.496 13.68 17.496 13.68 17.496 C13.68 17.496 13.68 0 13.68 0 Z" />
 </g>
 <g transform="translate(167.85, 187.699)" style="fill:#161413; fill-rule:nonzero; stroke:none; stroke-width:1.7; stroke-linecap:butt; stroke-linejoin:miter; stroke-dasharray:none;" >
  <path d="M28.549 0 C28.549 0 28.95 1.651 28.95 1.651 C28.95 1.651 0 9.401 0 9.401 C0 9.401 0.549 7.5 0.549 7.5 C0.549 7.5 28.549 0 28.549 0 Z" />
 </g>
 <g transform="translate(208.5, 147.35)" style="fill:#161413; fill-rule:nonzero; stroke:none; stroke-width:1.7; stroke-linecap:butt; stroke-linejoin:miter; stroke-dasharray:none;" >
  <path d="M7.35 0 C7.35 0 9 0.45 9 0.45 C9 0.45 1.6 28 1.6 28 C1.6 28 0 27.599 0 27.599 C0 27.599 7.35 0 7.35 0 Z" />
 </g>
 <g transform="translate(97.6621, 81.9658)" style="fill:#161413; fill-rule:evenodd; stroke:none; stroke-width:1.7; stroke-linecap:butt; stroke-linejoin:miter; stroke-dasharray:none;" >
  <path d="M8.4239 0 C3.4079 0 0 3.6963 0 9.168 C0 14.6406 3.4079 18.3362 8.4479 18.3362 C10.5599 18.3362 12.4559 17.6885 13.8719 16.4883 C15.7679 14.8799 16.8959 12.168 16.8959 9.3125 C16.8959 3.6719 13.5599 0 8.4239 0 Z M8.4239 1.9678 C12.2159 1.9678 14.6639 4.8487 14.6639 9.2647 C14.6639 13.4883 12.1439 16.3682 8.4479 16.3682 C4.7279 16.3682 2.2315 13.4883 2.2315 9.168 C2.2315 4.8487 4.7279 1.9678 8.4239 1.9678 Z" />
 </g>
 <g transform="translate(71.8496, 95.25)" style="fill:#161413; fill-rule:nonzero; stroke:none; stroke-width:1.7; stroke-linecap:butt; stroke-linejoin:miter; stroke-dasharray:none;" >
  <path d="M24.1504 0 C24.1504 0 25 1.5 25 1.5 C25 1.5 0.8496 15.399 0.8496 15.399 C0.8496 15.399 0 14.949 0 14.949 C0 14.949 0 13.949 0 13.949 C0 13.949 24.1504 0 24.1504 0 Z" />
 </g>
 <g transform="translate(215.5, 194.949)" style="fill:#161413; fill-rule:nonzero; stroke:none; stroke-width:1.7; stroke-linecap:butt; stroke-linejoin:miter; stroke-dasharray:none;" >
  <path d="M19.55 18.401 C19.55 18.401 18.35 19.601 18.35 19.601 C18.35 19.601 0 1.2 0 1.2 C0 1.2 1.199 0 1.199 0 C1.199 0 19.55 18.401 19.55 18.401 Z" />
 </g>
 <g transform="translate(99.9336, 42.7539)" style="fill:#161413; fill-rule:evenodd; stroke:none; stroke-width:1.7; stroke-linecap:butt; stroke-linejoin:miter; stroke-dasharray:none;" >
  <path d="M2.2324 10.0801 C2.2324 10.0801 7.7284 10.0801 7.7284 10.0801 C9.0964 10.0801 10.1764 9.6719 11.1124 8.832 C12.1684 7.8721 12.6244 6.7441 12.6244 5.1357 C12.6244 1.8477 10.6804 0 7.2244 0 C7.2244 0 0 0 0 0 C0 0 0 17.4961 0 17.4961 C0 17.4961 2.2324 17.4961 2.2324 17.4961 C2.2324 17.4961 2.2324 10.0801 2.2324 10.0801 Z M2.2324 8.1123 C2.2324 8.1123 2.2324 1.9678 2.2324 1.9678 C2.2324 1.9678 6.8884 1.9678 6.8884 1.9678 C9.0244 1.9678 10.2964 3.1201 10.2964 5.04 C10.2964 6.96 9.0244 8.1123 6.8884 8.1123 C6.8884 8.1123 2.2324 8.1123 2.2324 8.1123 Z" />
 </g>
 <g transform="translate(105.3, 62.3496)" style="fill:#161413; fill-rule:nonzero; stroke:none; stroke-width:1.7; stroke-linecap:butt; stroke-linejoin:miter; stroke-dasharray:none;" >
  <path d="M0 0 C0 0 1.7 0 1.7 0 C1.7 0 1.7 17.7002 1.7 17.7002 C1.7 17.7002 0 17.7002 0 17.7002 C0 17.7002 0 0 0 0 Z" />
 </g>
 <g transform="translate(58.1621, 42.4658)" style="fill:#161413; fill-rule:evenodd; stroke:none; stroke-width:1.7; stroke-linecap:butt; stroke-linejoin:miter; stroke-dasharray:none;" >
  <path d="M8.4238 0 C3.4082 0 0 3.6963 0 9.168 C0 14.6406 3.4082 18.336 8.4483 18.336 C10.5596 18.336 12.4561 17.6885 13.8721 16.4883 C15.7676 14.8799 16.8955 12.168 16.8955 9.3125 C16.8955 3.6719 13.5596 0 8.4238 0 Z M8.4238 1.9678 C12.2158 1.9678 14.6641 4.8487 14.6641 9.2647 C14.6641 13.4883 12.1436 16.3682 8.4483 16.3682 C4.7275 16.3682 2.2315 13.4883 2.2315 9.168 C2.2315 4.8487 4.7275 1.9678 8.4238 1.9678 Z" />
 </g>
 <g transform="translate(76.9492, 52.8496)" style="fill:#161413; fill-rule:nonzero; stroke:none; stroke-width:1.7; stroke-linecap:butt; stroke-linejoin:miter; stroke-dasharray:none;" >
  <path d="M0 1.7002 C0 1.7002 0 0 0 0 C0 0 20.3506 0 20.3506 0 C20.3506 0 20.3506 1.7002 20.3506 1.7002 C20.3506 1.7002 0 1.7002 0 1.7002 Z" />
 </g>
 <g transform="translate(76.9492, 46.8994)" style="fill:#161413; fill-rule:nonzero; stroke:none; stroke-width:1.7; stroke-linecap:butt; stroke-linejoin:miter; stroke-dasharray:none;" >
  <path d="M0 1.7002 C0 1.7002 0 0 0 0 C0 0 20.3506 0 20.3506 0 C20.3506 0 20.3506 1.7002 20.3506 1.7002 C20.3506 1.7002 0 1.7002 0 1.7002 Z" />
 </g>
 <g transform="translate(137.412, 42.4658)" style="fill:#161413; fill-rule:evenodd; stroke:none; stroke-width:1.7; stroke-linecap:butt; stroke-linejoin:miter; stroke-dasharray:none;" >
  <path d="M8.424 0 C3.408 0 0 3.6963 0 9.168 C0 14.6406 3.408 18.336 8.448 18.336 C10.56 18.336 12.456 17.6885 13.872 16.4883 C15.768 14.8799 16.896 12.168 16.896 9.3125 C16.896 3.6719 13.56 0 8.424 0 Z M8.424 1.9678 C12.216 1.9678 14.664 4.8487 14.664 9.2647 C14.664 13.4883 12.144 16.3682 8.448 16.3682 C4.728 16.3682 2.232 13.4883 2.232 9.168 C2.232 4.8487 4.728 1.9678 8.424 1.9678 Z" />
 </g>
 <g transform="translate(155.198, 45.958)" style="fill:#161413; fill-rule:evenodd; stroke:none; stroke-width:1.7; stroke-linecap:butt; stroke-linejoin:miter; stroke-dasharray:none;" >
  <path d="M0 0 C0 0 0 0.9902 0 0.9902 C0 0.9902 9.432 0.9902 9.432 0.9902 C9.432 0.9902 9.432 0 9.432 0 C9.432 0 0 0 0 0 Z" />
 </g>
 <g transform="translate(114.949, 49.8496)" style="fill:#161413; fill-rule:nonzero; stroke:none; stroke-width:1.7; stroke-linecap:butt; stroke-linejoin:miter; stroke-dasharray:none;" >
  <path d="M20.401 0 C20.401 0 20.401 1.7002 20.401 1.7002 C20.401 1.7002 0 1.7002 0 1.7002 C0 1.7002 0 0 0 0 C0 0 20.401 0 20.401 0 Z" />
 </g>
 <g transform="translate(97.6621, 2.71582)" style="fill:#161413; fill-rule:evenodd; stroke:none; stroke-width:1.7; stroke-linecap:butt; stroke-linejoin:miter; stroke-dasharray:none;" >
  <path d="M8.4239 0 C3.4079 0 0 3.69629 0 9.16798 C0 14.6406 3.4079 18.336 8.4479 18.336 C10.5599 18.336 12.4559 17.6885 13.8719 16.4883 C15.7679 14.8799 16.8959 12.168 16.8959 9.31248 C16.8959 3.67188 13.5599 0 8.4239 0 Z M8.4239 1.96777 C12.2159 1.96777 14.6639 4.84863 14.6639 9.26468 C14.6639 13.4883 12.1439 16.3682 8.4479 16.3682 C4.7279 16.3682 2.2315 13.4883 2.2315 9.16798 C2.2315 4.84863 4.7279 1.96777 8.4239 1.96777 Z" />
 </g>
 <g transform="translate(117.492, 3.00391)" style="fill:#161413; fill-rule:evenodd; stroke:none; stroke-width:1.7; stroke-linecap:butt; stroke-linejoin:miter; stroke-dasharray:none;" >
  <path d="M11.232 9.52829 C11.232 9.52829 11.232 17.4961 11.232 17.4961 C11.232 17.4961 13.464 17.4961 13.464 17.4961 C13.464 17.4961 13.464 0 13.464 0 C13.464 0 11.232 0 11.232 0 C11.232 0 11.232 7.56059 11.232 7.56059 C11.232 7.56059 2.232 7.56059 2.232 7.56059 C2.232 7.56059 2.232 0 2.232 0 C2.232 0 0 0 0 0 C0 0 0 17.4961 0 17.4961 C0 17.4961 2.256 17.4961 2.256 17.4961 C2.256 17.4961 2.256 9.52829 2.256 9.52829 C2.256 9.52829 11.232 9.52829 11.232 9.52829 Z" />
 </g>
 <g transform="translate(105.3, 23)" style="fill:#161413; fill-rule:nonzero; stroke:none; stroke-width:1.7; stroke-linecap:butt; stroke-linejoin:miter; stroke-dasharray:none;" >
  <path d="M0 0 C0 0 1.7 0 1.7 0 C1.7 0 1.7 17.6992 1.7 17.6992 C1.7 17.6992 0 17.6992 0 17.6992 C0 17.6992 0 0 0 0 Z" />
 </g>
</svg>
