<?xml version="1.0" encoding="UTF-8" standalone="no"?>
<!-- Generator: Adobe Illustrator 12.0.1, SVG Export Plug-In . SVG Version: 6.00 Build 51448)  -->
<svg
   xmlns:dc="http://purl.org/dc/elements/1.1/"
   xmlns:cc="http://web.resource.org/cc/"
   xmlns:rdf="http://www.w3.org/1999/02/22-rdf-syntax-ns#"
   xmlns:svg="http://www.w3.org/2000/svg"
   xmlns="http://www.w3.org/2000/svg"
   xmlns:sodipodi="http://sodipodi.sourceforge.net/DTD/sodipodi-0.dtd"
   xmlns:inkscape="http://www.inkscape.org/namespaces/inkscape"
   version="1.1"
   id="Layer_1"
   width="226.867"
   height="165.034"
   viewBox="0 0 226.867 165.034"
   style="overflow:visible;enable-background:new 0 0 226.867 165.034;"
   xml:space="preserve"
   sodipodi:version="0.32"
   inkscape:version="0.44.1"
   sodipodi:docname="Serotonin (5-HT).svg"
   sodipodi:docbase="E:\Eigene Dateien"><metadata
   id="metadata64"><rdf:RDF><cc:Work
       rdf:about=""><dc:format>image/svg+xml</dc:format><dc:type
         rdf:resource="http://purl.org/dc/dcmitype/StillImage" /></cc:Work></rdf:RDF></metadata><defs
   id="defs62" /><sodipodi:namedview
   inkscape:window-height="573"
   inkscape:window-width="925"
   inkscape:pageshadow="2"
   inkscape:pageopacity="0.0"
   guidetolerance="10.0"
   gridtolerance="10.0"
   objecttolerance="10.0"
   borderopacity="1.0"
   bordercolor="#666666"
   pagecolor="#ffffff"
   id="base"
   inkscape:zoom="2.2904372"
   inkscape:cx="113.4335"
   inkscape:cy="82.516998"
   inkscape:window-x="66"
   inkscape:window-y="66"
   inkscape:current-layer="Layer_1" />
<path
   d="M 156.40153,86.85565 L 156.40153,88.70815 L 124.52808,107.09065 L 123.76903,106.61565 L 123.72153,105.71315 L 156.40153,86.85565 z "
   id="polygon3" />
<path
   d="M 189.79402,106.14065 L 188.17807,107.09065 L 156.40153,88.70815 L 156.40153,86.85565 L 189.79402,106.14065 z "
   id="polygon5" />
<g
   id="g7"
   transform="matrix(0.95,0,0,0.95,5.671675,4.12585)">
	<path
   d="M 186.19,156.984 L 186.19,139.796 L 188.53,139.796 L 197.534,153.284 L 197.534,139.796 L 199.722,139.796 L 199.722,156.984 L 197.382,156.984 L 188.378,143.495 L 188.378,156.984 L 186.19,156.984 z "
   id="path9" />
	<path
   d="M 203.632,156.984 L 203.632,139.796 L 205.913,139.796 L 205.913,146.859 L 214.804,146.859 L 214.804,139.796 L 217.085,139.796 L 217.085,156.984 L 214.804,156.984 L 214.804,148.89 L 205.913,148.89 L 205.913,156.984 L 203.632,156.984 z "
   id="path11" />
</g>
<g
   id="g13"
   transform="matrix(0.95,0,0,0.95,5.671675,4.12585)">
	<path
   d="M 226.867,159.969 L 226.867,161.485 L 218.336,161.485 C 218.324,161.104 218.386,160.738 218.522,160.385 C 218.74,159.805 219.089,159.235 219.57,158.673 C 220.051,158.111 220.741,157.462 221.64,156.725 C 223.036,155.573 223.982,154.662 224.48,153.992 C 224.978,153.322 225.227,152.688 225.227,152.089 C 225.227,151.463 225.001,150.935 224.552,150.505 C 224.101,150.075 223.515,149.86 222.791,149.86 C 222.025,149.86 221.414,150.089 220.955,150.548 C 220.496,151.006 220.264,151.642 220.258,152.453 L 218.633,152.281 C 218.744,151.066 219.164,150.139 219.893,149.502 C 220.621,148.865 221.599,148.547 222.827,148.547 C 224.066,148.547 225.047,148.89 225.769,149.576 C 226.491,150.262 226.852,151.111 226.852,152.126 C 226.852,152.643 226.746,153.149 226.535,153.647 C 226.324,154.145 225.972,154.669 225.482,155.221 C 224.991,155.772 224.177,156.529 223.042,157.49 C 222.092,158.287 221.48,158.828 221.209,159.111 C 220.938,159.396 220.713,159.681 220.536,159.968 L 226.867,159.968 L 226.867,159.969 z "
   id="path15" />
</g>
<path
   d="M 189.79402,134.78315 L 188.17807,134.78315 L 188.17807,107.09065 L 189.79402,106.14065 L 189.79402,134.78315 z "
   id="polygon17" />
<g
   id="g19"
   transform="matrix(0.95,0,0,0.95,5.671675,4.12585)">
	<path
   d="M 57.2,165.034 L 57.2,147.846 L 59.481,147.846 L 59.481,154.909 L 68.372,154.909 L 68.372,147.846 L 70.653,147.846 L 70.653,165.034 L 68.372,165.034 L 68.372,156.94 L 59.481,156.94 L 59.481,165.034 L 57.2,165.034 z "
   id="path21" />
	<path
   d="M 74.423,165.034 L 74.423,147.846 L 76.763,147.846 L 85.767,161.334 L 85.767,147.846 L 87.955,147.846 L 87.955,165.034 L 85.615,165.034 L 76.611,151.545 L 76.611,165.034 L 74.423,165.034 z "
   id="path23" />
</g>
<path
   d="M 89.521525,92.27065 L 89.331525,91.27315 L 89.948075,90.70315 L 123.72153,105.71315 L 123.76903,106.61565 L 122.91403,107.13815 L 89.521525,92.27065 z "
   id="polygon25" />
<path
   d="M 65.059025,119.39315 L 64.109025,119.29815 L 63.823075,118.39565 L 88.381525,91.08315 L 89.331525,91.27315 L 89.521525,92.27065 L 65.059025,119.39315 z "
   id="polygon27" />
<path
   d="M 62.684025,113.64565 L 61.448075,112.55315 L 82.348075,89.37315 L 83.535575,90.46565 L 62.684025,113.64565 z "
   id="polygon29" />
<path
   d="M 77.740575,141.33815 L 76.364025,142.14565 L 63.585575,120.01065 L 64.109025,119.29815 L 65.059025,119.39315 L 77.740575,141.33815 z "
   id="polygon31" />
<path
   d="M 119.06558,143.42815 L 120.53903,144.75815 L 92.134025,150.83815 L 91.801525,149.22315 L 119.06558,143.42815 z "
   id="polygon33" />
<path
   d="M 122.91403,107.13815 L 123.76903,106.61565 L 124.52808,107.09065 L 120.53903,144.75815 L 119.06558,143.42815 L 122.91403,107.13815 z "
   id="polygon35" />
<path
   d="M 116.88153,110.03565 L 118.49653,110.17815 L 115.40903,139.53315 L 113.84058,139.34315 L 116.88153,110.03565 z "
   id="polygon37" />
<path
   d="M 77.028075,56.12315 L 78.310575,54.74565 L 89.948075,90.70315 L 89.331525,91.27315 L 88.381525,91.08315 L 77.028075,56.12315 z "
   id="polygon39" />
<path
   d="M 41.071525,48.47565 L 40.785575,47.57315 L 41.403075,46.90815 L 78.310575,54.74565 L 77.028075,56.12315 L 41.071525,48.47565 z "
   id="polygon41" />
<path
   d="M 42.639025,54.60315 L 42.971525,52.98815 L 73.465575,59.49565 L 73.134025,61.06315 L 42.639025,54.60315 z "
   id="polygon43" />
<path
   d="M 16.465575,75.78815 L 14.660575,75.40815 L 39.884025,47.38315 L 40.785575,47.57315 L 41.071525,48.47565 L 16.465575,75.78815 z "
   id="polygon45" />
<path
   d="M 27.819025,110.74815 L 26.584025,112.17315 L 14.660575,75.40815 L 16.465575,75.78815 L 27.819025,110.74815 z "
   id="polygon47" />
<path
   d="M 32.331525,106.37815 L 30.810575,106.85315 L 21.169025,77.21315 L 22.735575,76.69065 L 32.331525,106.37815 z "
   id="polygon49" />
<path
   d="M 63.823075,118.39565 L 64.109025,119.29815 L 63.585575,120.01065 L 26.584025,112.17315 L 27.819025,110.74815 L 63.823075,118.39565 z "
   id="polygon51" />
<g
   id="g53"
   transform="matrix(0.95,0,0,0.95,5.671675,4.12585)">
	<path
   d="M 0,17.484 L 0,0.297 L 2.281,0.297 L 2.281,7.36 L 11.172,7.36 L 11.172,0.297 L 13.453,0.297 L 13.453,17.485 L 11.172,17.485 L 11.172,9.391 L 2.281,9.391 L 2.281,17.485 L 0,17.485 L 0,17.484 z "
   id="path55" />
	<path
   d="M 16.551,9.119 C 16.551,6.267 17.317,4.034 18.849,2.42 C 20.381,0.807 22.358,0 24.781,0 C 26.368,0 27.798,0.379 29.072,1.137 C 30.346,1.895 31.317,2.952 31.986,4.308 C 32.654,5.664 32.988,7.202 32.988,8.92 C 32.988,10.662 32.636,12.222 31.933,13.597 C 31.229,14.973 30.233,16.014 28.943,16.721 C 27.653,17.428 26.262,17.782 24.769,17.782 C 23.151,17.782 21.705,17.391 20.431,16.61 C 19.157,15.829 18.192,14.762 17.535,13.41 C 16.879,12.058 16.551,10.627 16.551,9.119 z M 18.895,9.148 C 18.895,11.218 19.452,12.849 20.566,14.041 C 21.68,15.233 23.078,15.828 24.758,15.828 C 26.47,15.828 27.879,15.226 28.986,14.023 C 30.092,12.82 30.645,11.113 30.645,8.902 C 30.645,7.504 30.409,6.283 29.936,5.24 C 29.463,4.197 28.771,3.388 27.86,2.814 C 26.949,2.24 25.927,1.953 24.794,1.953 C 23.184,1.953 21.798,2.506 20.637,3.611 C 19.476,4.716 18.895,6.563 18.895,9.148 z "
   id="path57" />
</g>
<path
   d="M 31.903075,22.82565 L 33.423075,22.30315 L 41.403075,46.90815 L 40.785575,47.57315 L 39.884025,47.38315 L 31.903075,22.82565 z "
   id="polygon59" />
</svg>